<mxfile host="app.diagrams.net" modified="2021-10-01T09:55:37.203Z" agent="5.0 (Windows NT 10.0; Win64; x64) AppleWebKit/537.36 (KHTML, like Gecko) Chrome/94.0.4606.61 Safari/537.36" etag="59c5kGbPf3m0kEJ3Q4b6" version="15.3.8" type="github" pages="2">
  <diagram id="jRIr0wfKVOdQesPZKTkn" name="MSNN">
    <mxGraphModel dx="2842" dy="867" grid="1" gridSize="10" guides="1" tooltips="1" connect="1" arrows="1" fold="1" page="1" pageScale="1" pageWidth="1169" pageHeight="827" math="0" shadow="0">
      <root>
        <mxCell id="0" />
        <mxCell id="1" parent="0" />
        <mxCell id="ZriFAy0KCeG_H7LmupDI-7" value="" style="rounded=1;whiteSpace=wrap;html=1;labelBackgroundColor=#FFF2CC;glass=0;arcSize=6;imageHeight=22;imageWidth=24;fillColor=#f8cecc;strokeColor=#b85450;shadow=1;opacity=60;sketch=0;gradientColor=#ffffff;gradientDirection=south;" parent="1" vertex="1">
          <mxGeometry x="-600" y="330" width="360" height="490" as="geometry" />
        </mxCell>
        <mxCell id="ZriFAy0KCeG_H7LmupDI-4" value="" style="rounded=1;whiteSpace=wrap;html=1;labelBackgroundColor=#D5E8D4;fillColor=#fff2cc;strokeColor=#d6b656;shadow=1;opacity=80;perimeterSpacing=1;gradientColor=#ffffff;" parent="1" vertex="1">
          <mxGeometry x="-722" y="200" width="710" height="122" as="geometry" />
        </mxCell>
        <mxCell id="ZriFAy0KCeG_H7LmupDI-1" value="" style="rounded=1;whiteSpace=wrap;html=1;fillColor=#d5e8d4;strokeColor=#82b366;shadow=1;opacity=60;gradientColor=#ffffff;" parent="1" vertex="1">
          <mxGeometry x="-967" y="11" width="955" height="180" as="geometry" />
        </mxCell>
        <mxCell id="K6QV_oRI_L7NrehGVFSH-9" value="" style="endArrow=none;html=1;shadow=0;fontSize=20;sourcePerimeterSpacing=5;targetPerimeterSpacing=5;strokeColor=#000000;exitX=0;exitY=1;exitDx=0;exitDy=0;curved=1;" parent="1" edge="1">
          <mxGeometry width="50" height="50" relative="1" as="geometry">
            <mxPoint x="-1126" y="141" as="sourcePoint" />
            <mxPoint x="-1126" y="51" as="targetPoint" />
            <Array as="points">
              <mxPoint x="-1157" y="96" />
            </Array>
          </mxGeometry>
        </mxCell>
        <mxCell id="K6QV_oRI_L7NrehGVFSH-10" value="n&lt;sub&gt;c&lt;/sub&gt;" style="edgeLabel;html=1;align=center;verticalAlign=middle;resizable=0;points=[];fontSize=20;" parent="K6QV_oRI_L7NrehGVFSH-9" vertex="1" connectable="0">
          <mxGeometry x="-0.2917" y="-19" relative="1" as="geometry">
            <mxPoint x="-5" y="-7" as="offset" />
          </mxGeometry>
        </mxCell>
        <mxCell id="K6QV_oRI_L7NrehGVFSH-11" value="" style="shape=flexArrow;endArrow=classic;html=1;shadow=0;fontSize=20;sourcePerimeterSpacing=5;targetPerimeterSpacing=5;strokeColor=#10739e;fillColor=#b1ddf0;" parent="1" edge="1">
          <mxGeometry width="50" height="50" relative="1" as="geometry">
            <mxPoint x="-1027" y="95.75" as="sourcePoint" />
            <mxPoint x="-917" y="96" as="targetPoint" />
          </mxGeometry>
        </mxCell>
        <mxCell id="K6QV_oRI_L7NrehGVFSH-14" value="" style="shape=cube;whiteSpace=wrap;html=1;boundedLbl=1;backgroundOutline=1;darkOpacity=0.05;darkOpacity2=0.1;fontSize=20;rotation=90;" parent="1" vertex="1">
          <mxGeometry x="-904.18" y="38.81" width="110" height="94.38" as="geometry" />
        </mxCell>
        <mxCell id="K6QV_oRI_L7NrehGVFSH-15" value="&lt;font style=&quot;font-size: 16px&quot;&gt;[1 x 1 x f&lt;sub&gt;s&amp;nbsp;&lt;/sub&gt;/ 2 x F&lt;sub&gt;0&lt;/sub&gt;]&lt;/font&gt;" style="text;html=1;strokeColor=none;fillColor=none;align=center;verticalAlign=middle;whiteSpace=wrap;rounded=0;fontSize=20;" parent="1" vertex="1">
          <mxGeometry x="-1047" y="129.75" width="140" height="20" as="geometry" />
        </mxCell>
        <mxCell id="K6QV_oRI_L7NrehGVFSH-22" value="" style="endArrow=none;html=1;shadow=0;fontSize=20;sourcePerimeterSpacing=5;targetPerimeterSpacing=5;strokeColor=#000000;curved=1;" parent="1" edge="1">
          <mxGeometry width="50" height="50" relative="1" as="geometry">
            <mxPoint x="-877" y="31" as="sourcePoint" />
            <mxPoint x="-897" y="51" as="targetPoint" />
            <Array as="points">
              <mxPoint x="-897" y="31" />
            </Array>
          </mxGeometry>
        </mxCell>
        <mxCell id="K6QV_oRI_L7NrehGVFSH-24" value="&lt;font style=&quot;font-size: 16px&quot;&gt;F&lt;sub&gt;0&lt;/sub&gt;&lt;/font&gt;" style="text;html=1;strokeColor=none;fillColor=none;align=center;verticalAlign=middle;whiteSpace=wrap;rounded=0;fontSize=20;" parent="1" vertex="1">
          <mxGeometry x="-927" y="21.630000000000003" width="40" height="20" as="geometry" />
        </mxCell>
        <mxCell id="K6QV_oRI_L7NrehGVFSH-25" value="&lt;font style=&quot;font-size: 16px&quot;&gt;[1 x 1 x T&lt;sub&gt;1&lt;/sub&gt;&amp;nbsp;x F&lt;sub&gt;0,&lt;br&gt;&lt;/sub&gt;F&lt;sub&gt;0&lt;/sub&gt; x 1 x 1 x F&lt;sub&gt;1&lt;/sub&gt;]&lt;/font&gt;" style="text;html=1;strokeColor=none;fillColor=none;align=center;verticalAlign=middle;whiteSpace=wrap;rounded=0;fontSize=20;" parent="1" vertex="1">
          <mxGeometry x="-807" y="133.19" width="140" height="20" as="geometry" />
        </mxCell>
        <mxCell id="K6QV_oRI_L7NrehGVFSH-26" value="" style="shape=flexArrow;endArrow=classic;html=1;shadow=0;fontSize=20;sourcePerimeterSpacing=5;targetPerimeterSpacing=5;strokeColor=#b85450;gradientColor=#ea6b66;fillColor=#f8cecc;" parent="1" edge="1">
          <mxGeometry width="50" height="50" relative="1" as="geometry">
            <mxPoint x="-794.1800000000001" y="95.58000000000001" as="sourcePoint" />
            <mxPoint x="-664.1800000000001" y="96.08000000000001" as="targetPoint" />
          </mxGeometry>
        </mxCell>
        <mxCell id="K6QV_oRI_L7NrehGVFSH-29" value="&lt;font style=&quot;font-size: 16px&quot;&gt;[1&amp;nbsp;&lt;/font&gt;&lt;font&gt;&lt;span style=&quot;font-size: 16px&quot;&gt;x 1 x T&lt;/span&gt;&lt;sub style=&quot;font-size: 16px&quot;&gt;1&lt;/sub&gt;&lt;span style=&quot;font-size: 16px&quot;&gt;&amp;nbsp;x F1&lt;/span&gt;&lt;sub style=&quot;font-size: 16px&quot;&gt;,&lt;br&gt;&lt;/sub&gt;&lt;span style=&quot;font-size: 16px&quot;&gt;F&lt;/span&gt;&lt;sub style=&quot;font-size: 16px&quot;&gt;1&lt;/sub&gt;&lt;span style=&quot;font-size: 16px&quot;&gt; x 1 x 1 x F&lt;/span&gt;&lt;sub style=&quot;font-size: 16px&quot;&gt;2&lt;/sub&gt;&lt;span style=&quot;font-size: 16px&quot;&gt;]&lt;/span&gt;&lt;/font&gt;" style="text;html=1;strokeColor=none;fillColor=none;align=center;verticalAlign=middle;whiteSpace=wrap;rounded=0;fontSize=20;" parent="1" vertex="1">
          <mxGeometry x="-591" y="129.75" width="190" height="20" as="geometry" />
        </mxCell>
        <mxCell id="K6QV_oRI_L7NrehGVFSH-34" value="" style="shape=flexArrow;endArrow=classic;html=1;shadow=0;fontSize=20;sourcePerimeterSpacing=5;targetPerimeterSpacing=5;strokeColor=#b85450;gradientColor=#ea6b66;fillColor=#f8cecc;" parent="1" edge="1">
          <mxGeometry width="50" height="50" relative="1" as="geometry">
            <mxPoint x="-274.06" y="95.65999999999988" as="sourcePoint" />
            <mxPoint x="-144.06" y="96.15999999999988" as="targetPoint" />
          </mxGeometry>
        </mxCell>
        <mxCell id="K6QV_oRI_L7NrehGVFSH-37" value="&lt;font style=&quot;font-size: 16px&quot;&gt;[1 x 1 x T&lt;sub&gt;1&lt;/sub&gt;&amp;nbsp;x F&lt;sub&gt;k-1,&lt;br&gt;&lt;/sub&gt;F&lt;sub&gt;k-1&lt;/sub&gt; x 1 x 1 x F&lt;/font&gt;&lt;font&gt;&lt;span style=&quot;font-size: 13.3333px&quot;&gt;k&lt;/span&gt;&lt;span style=&quot;font-size: 16px&quot;&gt;]&lt;/span&gt;&lt;/font&gt;" style="text;html=1;strokeColor=none;fillColor=none;align=center;verticalAlign=middle;whiteSpace=wrap;rounded=0;fontSize=20;" parent="1" vertex="1">
          <mxGeometry x="-287" y="129.75" width="140" height="20" as="geometry" />
        </mxCell>
        <mxCell id="K6QV_oRI_L7NrehGVFSH-44" value=". . ." style="text;html=1;strokeColor=none;fillColor=none;align=center;verticalAlign=middle;whiteSpace=wrap;rounded=0;fontSize=20;" parent="1" vertex="1">
          <mxGeometry x="-314.06" y="70.99999999999999" width="40" height="20" as="geometry" />
        </mxCell>
        <mxCell id="K6QV_oRI_L7NrehGVFSH-47" value="" style="shape=flexArrow;endArrow=classic;html=1;shadow=0;fontSize=20;sourcePerimeterSpacing=5;targetPerimeterSpacing=5;strokeColor=#10739e;fillColor=#b1ddf0;" parent="1" edge="1">
          <mxGeometry width="50" height="50" relative="1" as="geometry">
            <mxPoint x="-617.5" y="171" as="sourcePoint" />
            <mxPoint x="-617.5" y="251" as="targetPoint" />
          </mxGeometry>
        </mxCell>
        <mxCell id="K6QV_oRI_L7NrehGVFSH-49" value="&lt;font style=&quot;font-size: 16px&quot;&gt;[F&lt;sub&gt;0&lt;/sub&gt; x n&lt;sub&gt;c&lt;/sub&gt; x 1&amp;nbsp;x F&lt;sub&gt;1&lt;/sub&gt;]&lt;/font&gt;" style="text;html=1;strokeColor=none;fillColor=none;align=center;verticalAlign=middle;whiteSpace=wrap;rounded=0;fontSize=20;" parent="1" vertex="1">
          <mxGeometry x="-807" y="201" width="140" height="20" as="geometry" />
        </mxCell>
        <mxCell id="K6QV_oRI_L7NrehGVFSH-50" value="" style="shape=cube;whiteSpace=wrap;html=1;boundedLbl=1;backgroundOutline=1;darkOpacity=0.05;darkOpacity2=0.1;fontSize=20;rotation=90;" parent="1" vertex="1">
          <mxGeometry x="-632.5" y="242" width="35" height="98.75" as="geometry" />
        </mxCell>
        <mxCell id="K6QV_oRI_L7NrehGVFSH-51" value="&lt;font style=&quot;font-size: 16px&quot;&gt;F&lt;sub&gt;1&lt;/sub&gt;&lt;/font&gt;" style="text;html=1;strokeColor=none;fillColor=none;align=center;verticalAlign=middle;whiteSpace=wrap;rounded=0;fontSize=20;" parent="1" vertex="1">
          <mxGeometry x="-695" y="264" width="40" height="20" as="geometry" />
        </mxCell>
        <mxCell id="K6QV_oRI_L7NrehGVFSH-52" value="" style="endArrow=none;html=1;shadow=0;fontSize=20;sourcePerimeterSpacing=5;targetPerimeterSpacing=5;strokeColor=#000000;curved=1;exitX=0;exitY=0;exitDx=0;exitDy=98.75;exitPerimeter=0;entryX=0;entryY=0;entryDx=20;entryDy=118.75;entryPerimeter=0;" parent="1" edge="1">
          <mxGeometry width="50" height="50" relative="1" as="geometry">
            <mxPoint x="-644.375" y="273.3750000000001" as="sourcePoint" />
            <mxPoint x="-664.375" y="293.3750000000001" as="targetPoint" />
            <Array as="points">
              <mxPoint x="-665" y="273.37" />
            </Array>
          </mxGeometry>
        </mxCell>
        <mxCell id="K6QV_oRI_L7NrehGVFSH-56" value="" style="shape=flexArrow;endArrow=classic;html=1;shadow=0;fontSize=20;sourcePerimeterSpacing=5;targetPerimeterSpacing=5;strokeColor=#10739e;fillColor=#b1ddf0;" parent="1" edge="1">
          <mxGeometry width="50" height="50" relative="1" as="geometry">
            <mxPoint x="-371.34" y="171" as="sourcePoint" />
            <mxPoint x="-371.34" y="251" as="targetPoint" />
          </mxGeometry>
        </mxCell>
        <mxCell id="K6QV_oRI_L7NrehGVFSH-58" value="&lt;font style=&quot;font-size: 16px&quot;&gt;[F&lt;sub&gt;1&lt;/sub&gt; x n&lt;sub&gt;c&lt;/sub&gt; x 1&amp;nbsp;x F&lt;/font&gt;&lt;font&gt;&lt;span style=&quot;font-size: 13.3333px&quot;&gt;2&lt;/span&gt;&lt;span style=&quot;font-size: 16px&quot;&gt;]&lt;/span&gt;&lt;/font&gt;" style="text;html=1;strokeColor=none;fillColor=none;align=center;verticalAlign=middle;whiteSpace=wrap;rounded=0;fontSize=20;" parent="1" vertex="1">
          <mxGeometry x="-557" y="201" width="140" height="20" as="geometry" />
        </mxCell>
        <mxCell id="K6QV_oRI_L7NrehGVFSH-59" value="" style="shape=cube;whiteSpace=wrap;html=1;boundedLbl=1;backgroundOutline=1;darkOpacity=0.05;darkOpacity2=0.1;fontSize=20;rotation=90;" parent="1" vertex="1">
          <mxGeometry x="-390.32" y="242" width="35" height="98.75" as="geometry" />
        </mxCell>
        <mxCell id="K6QV_oRI_L7NrehGVFSH-60" value="&lt;font style=&quot;font-size: 16px&quot;&gt;F&lt;/font&gt;&lt;font style=&quot;font-size: 13.3333px&quot;&gt;2&lt;/font&gt;" style="text;html=1;strokeColor=none;fillColor=none;align=center;verticalAlign=middle;whiteSpace=wrap;rounded=0;fontSize=20;" parent="1" vertex="1">
          <mxGeometry x="-452.82" y="264" width="40" height="20" as="geometry" />
        </mxCell>
        <mxCell id="K6QV_oRI_L7NrehGVFSH-61" value="" style="endArrow=none;html=1;shadow=0;fontSize=20;sourcePerimeterSpacing=5;targetPerimeterSpacing=5;strokeColor=#000000;curved=1;exitX=0;exitY=0;exitDx=0;exitDy=98.75;exitPerimeter=0;entryX=0;entryY=0;entryDx=20;entryDy=118.75;entryPerimeter=0;" parent="1" edge="1">
          <mxGeometry width="50" height="50" relative="1" as="geometry">
            <mxPoint x="-402.195" y="273.375" as="sourcePoint" />
            <mxPoint x="-422.195" y="293.375" as="targetPoint" />
            <Array as="points">
              <mxPoint x="-422.82" y="273.37" />
            </Array>
          </mxGeometry>
        </mxCell>
        <mxCell id="K6QV_oRI_L7NrehGVFSH-62" value="" style="shape=flexArrow;endArrow=classic;html=1;shadow=0;fontSize=20;sourcePerimeterSpacing=5;targetPerimeterSpacing=5;strokeColor=#10739e;fillColor=#b1ddf0;" parent="1" edge="1">
          <mxGeometry width="50" height="50" relative="1" as="geometry">
            <mxPoint x="-97" y="171" as="sourcePoint" />
            <mxPoint x="-97" y="251" as="targetPoint" />
          </mxGeometry>
        </mxCell>
        <mxCell id="K6QV_oRI_L7NrehGVFSH-64" value="&lt;font style=&quot;font-size: 16px&quot;&gt;[F&lt;sub&gt;k-1&lt;/sub&gt; x n&lt;sub&gt;c&lt;/sub&gt; x 1&amp;nbsp;x F&lt;sub&gt;k&lt;/sub&gt;]&lt;/font&gt;" style="text;html=1;strokeColor=none;fillColor=none;align=center;verticalAlign=middle;whiteSpace=wrap;rounded=0;fontSize=20;" parent="1" vertex="1">
          <mxGeometry x="-287" y="201" width="140" height="20" as="geometry" />
        </mxCell>
        <mxCell id="K6QV_oRI_L7NrehGVFSH-66" value="&lt;font style=&quot;font-size: 16px&quot;&gt;F&lt;sub&gt;k&lt;/sub&gt;&lt;/font&gt;" style="text;html=1;strokeColor=none;fillColor=none;align=center;verticalAlign=middle;whiteSpace=wrap;rounded=0;fontSize=20;" parent="1" vertex="1">
          <mxGeometry x="-172.82" y="264" width="40" height="20" as="geometry" />
        </mxCell>
        <mxCell id="K6QV_oRI_L7NrehGVFSH-67" value="" style="endArrow=none;html=1;shadow=0;fontSize=20;sourcePerimeterSpacing=5;targetPerimeterSpacing=5;strokeColor=#000000;curved=1;exitX=0;exitY=0;exitDx=0;exitDy=98.75;exitPerimeter=0;entryX=0;entryY=0;entryDx=20;entryDy=118.75;entryPerimeter=0;" parent="1" edge="1">
          <mxGeometry width="50" height="50" relative="1" as="geometry">
            <mxPoint x="-122.195" y="273.375" as="sourcePoint" />
            <mxPoint x="-142.195" y="293.375" as="targetPoint" />
            <Array as="points">
              <mxPoint x="-142.82" y="273.37" />
            </Array>
          </mxGeometry>
        </mxCell>
        <mxCell id="K6QV_oRI_L7NrehGVFSH-68" value="" style="shape=cube;whiteSpace=wrap;html=1;boundedLbl=1;backgroundOutline=1;darkOpacity=0.05;darkOpacity2=0.1;fontSize=20;rotation=90;" parent="1" vertex="1">
          <mxGeometry x="-459.78" y="450" width="35" height="103.74" as="geometry" />
        </mxCell>
        <mxCell id="K6QV_oRI_L7NrehGVFSH-70" value="" style="shape=cube;whiteSpace=wrap;html=1;boundedLbl=1;backgroundOutline=1;darkOpacity=0.05;darkOpacity2=0.1;fontSize=20;rotation=90;" parent="1" vertex="1">
          <mxGeometry x="-479.28" y="470" width="35" height="103.74" as="geometry" />
        </mxCell>
        <mxCell id="K6QV_oRI_L7NrehGVFSH-72" value="&lt;h6&gt;&lt;font style=&quot;font-size: 19px ; line-height: 60%&quot;&gt;.&lt;br&gt;&lt;/font&gt;&lt;font style=&quot;font-size: 19px ; line-height: 60%&quot;&gt;.&lt;br&gt;&lt;/font&gt;&lt;font style=&quot;font-size: 19px ; line-height: 60%&quot;&gt;.&lt;/font&gt;&lt;/h6&gt;" style="text;html=1;strokeColor=none;fillColor=none;align=center;verticalAlign=middle;whiteSpace=wrap;rounded=0;fontSize=20;" parent="1" vertex="1">
          <mxGeometry x="-403.83" y="450.75" width="40" height="20" as="geometry" />
        </mxCell>
        <mxCell id="K6QV_oRI_L7NrehGVFSH-74" value="&lt;font style=&quot;font-size: 16px&quot;&gt;F&lt;sub&gt;1&lt;/sub&gt;&lt;/font&gt;" style="text;html=1;strokeColor=none;fillColor=none;align=center;verticalAlign=middle;whiteSpace=wrap;rounded=0;fontSize=20;" parent="1" vertex="1">
          <mxGeometry x="-549.2099999999999" y="502.5" width="40" height="20" as="geometry" />
        </mxCell>
        <mxCell id="K6QV_oRI_L7NrehGVFSH-75" value="" style="endArrow=none;html=1;shadow=0;fontSize=20;sourcePerimeterSpacing=5;targetPerimeterSpacing=5;strokeColor=#000000;curved=1;entryX=0;entryY=0;entryDx=20;entryDy=103.74;entryPerimeter=0;" parent="1" target="K6QV_oRI_L7NrehGVFSH-70" edge="1">
          <mxGeometry width="50" height="50" relative="1" as="geometry">
            <mxPoint x="-493.78" y="504.25" as="sourcePoint" />
            <mxPoint x="-511.3699999999999" y="525.14" as="targetPoint" />
            <Array as="points">
              <mxPoint x="-517.21" y="504.5" />
            </Array>
          </mxGeometry>
        </mxCell>
        <mxCell id="K6QV_oRI_L7NrehGVFSH-79" value="&lt;font style=&quot;font-size: 16px&quot;&gt;F&lt;/font&gt;&lt;font style=&quot;font-size: 13.3333px&quot;&gt;2&lt;/font&gt;" style="text;html=1;strokeColor=none;fillColor=none;align=center;verticalAlign=middle;whiteSpace=wrap;rounded=0;fontSize=20;" parent="1" vertex="1">
          <mxGeometry x="-524.39" y="475.13" width="40" height="20" as="geometry" />
        </mxCell>
        <mxCell id="K6QV_oRI_L7NrehGVFSH-80" value="" style="endArrow=none;html=1;shadow=0;fontSize=20;sourcePerimeterSpacing=5;targetPerimeterSpacing=5;strokeColor=#000000;curved=1;exitX=0;exitY=0;exitDx=0;exitDy=98.75;exitPerimeter=0;entryX=0;entryY=0;entryDx=20;entryDy=118.75;entryPerimeter=0;" parent="1" edge="1">
          <mxGeometry width="50" height="50" relative="1" as="geometry">
            <mxPoint x="-473.765" y="484.505" as="sourcePoint" />
            <mxPoint x="-493.765" y="504.505" as="targetPoint" />
            <Array as="points">
              <mxPoint x="-494.39" y="484.5" />
            </Array>
          </mxGeometry>
        </mxCell>
        <mxCell id="K6QV_oRI_L7NrehGVFSH-81" value="&lt;font style=&quot;font-size: 16px&quot;&gt;F&lt;sub&gt;k&lt;/sub&gt;&lt;/font&gt;" style="text;html=1;strokeColor=none;fillColor=none;align=center;verticalAlign=middle;whiteSpace=wrap;rounded=0;fontSize=20;" parent="1" vertex="1">
          <mxGeometry x="-458.7" y="395.75" width="40" height="20" as="geometry" />
        </mxCell>
        <mxCell id="K6QV_oRI_L7NrehGVFSH-82" value="" style="endArrow=none;html=1;shadow=0;fontSize=20;sourcePerimeterSpacing=5;targetPerimeterSpacing=5;strokeColor=#000000;curved=1;exitX=0;exitY=0;exitDx=0;exitDy=98.75;exitPerimeter=0;entryX=0;entryY=0;entryDx=20;entryDy=118.75;entryPerimeter=0;" parent="1" edge="1">
          <mxGeometry width="50" height="50" relative="1" as="geometry">
            <mxPoint x="-409.075" y="404.125" as="sourcePoint" />
            <mxPoint x="-429.075" y="424.125" as="targetPoint" />
            <Array as="points">
              <mxPoint x="-429.7" y="404.12" />
            </Array>
          </mxGeometry>
        </mxCell>
        <mxCell id="K6QV_oRI_L7NrehGVFSH-83" value="" style="shape=cube;whiteSpace=wrap;html=1;boundedLbl=1;backgroundOutline=1;darkOpacity=0.05;darkOpacity2=0.1;fontSize=20;rotation=90;size=83;" parent="1" vertex="1">
          <mxGeometry x="-446.13" y="616.29" width="97.85" height="104.29" as="geometry" />
        </mxCell>
        <mxCell id="K6QV_oRI_L7NrehGVFSH-84" value="" style="shape=flexArrow;endArrow=classic;html=1;shadow=0;fontSize=20;sourcePerimeterSpacing=5;targetPerimeterSpacing=5;strokeColor=#000000;" parent="1" edge="1">
          <mxGeometry width="50" height="50" relative="1" as="geometry">
            <mxPoint x="-380.71" y="321" as="sourcePoint" />
            <mxPoint x="-381" y="382" as="targetPoint" />
          </mxGeometry>
        </mxCell>
        <mxCell id="K6QV_oRI_L7NrehGVFSH-85" value="Concatenation" style="edgeLabel;html=1;align=center;verticalAlign=middle;resizable=0;points=[];fontSize=20;labelBackgroundColor=none;" parent="K6QV_oRI_L7NrehGVFSH-84" vertex="1" connectable="0">
          <mxGeometry x="0.0182" y="2" relative="1" as="geometry">
            <mxPoint x="1" y="-11" as="offset" />
          </mxGeometry>
        </mxCell>
        <mxCell id="K6QV_oRI_L7NrehGVFSH-86" value="" style="shape=flexArrow;endArrow=classic;html=1;shadow=0;fontSize=20;sourcePerimeterSpacing=5;targetPerimeterSpacing=5;strokeColor=#000000;" parent="1" edge="1">
          <mxGeometry width="50" height="50" relative="1" as="geometry">
            <mxPoint x="-620" y="330" as="sourcePoint" />
            <mxPoint x="-476" y="372" as="targetPoint" />
          </mxGeometry>
        </mxCell>
        <mxCell id="K6QV_oRI_L7NrehGVFSH-88" value="" style="shape=flexArrow;endArrow=classic;html=1;shadow=0;fontSize=20;sourcePerimeterSpacing=5;targetPerimeterSpacing=5;strokeColor=#000000;" parent="1" edge="1">
          <mxGeometry width="50" height="50" relative="1" as="geometry">
            <mxPoint x="-98.42000000000004" y="324.87" as="sourcePoint" />
            <mxPoint x="-316" y="382" as="targetPoint" />
          </mxGeometry>
        </mxCell>
        <mxCell id="K6QV_oRI_L7NrehGVFSH-90" value="" style="shape=flexArrow;endArrow=classic;html=1;shadow=0;fontSize=20;sourcePerimeterSpacing=5;targetPerimeterSpacing=5;strokeColor=#000000;" parent="1" edge="1">
          <mxGeometry width="50" height="50" relative="1" as="geometry">
            <mxPoint x="-377.61000000000007" y="542" as="sourcePoint" />
            <mxPoint x="-377.86" y="608.01" as="targetPoint" />
          </mxGeometry>
        </mxCell>
        <mxCell id="K6QV_oRI_L7NrehGVFSH-91" value="Global Average Pooling" style="edgeLabel;html=1;align=center;verticalAlign=middle;resizable=0;points=[];fontSize=20;labelBackgroundColor=none;" parent="K6QV_oRI_L7NrehGVFSH-90" vertex="1" connectable="0">
          <mxGeometry x="0.0182" y="2" relative="1" as="geometry">
            <mxPoint y="-12" as="offset" />
          </mxGeometry>
        </mxCell>
        <mxCell id="K6QV_oRI_L7NrehGVFSH-92" value="" style="endArrow=none;html=1;shadow=0;fontSize=20;sourcePerimeterSpacing=5;targetPerimeterSpacing=5;strokeColor=#000000;exitX=0;exitY=0;exitDx=83;exitDy=104.29;curved=1;exitPerimeter=0;entryX=0.001;entryY=0.173;entryDx=0;entryDy=0;entryPerimeter=0;" parent="1" source="K6QV_oRI_L7NrehGVFSH-83" target="K6QV_oRI_L7NrehGVFSH-83" edge="1">
          <mxGeometry width="50" height="50" relative="1" as="geometry">
            <mxPoint x="-448.9100000000004" y="708.01" as="sourcePoint" />
            <mxPoint x="-365.85" y="618.01" as="targetPoint" />
            <Array as="points">
              <mxPoint x="-448.85" y="620.01" />
            </Array>
          </mxGeometry>
        </mxCell>
        <mxCell id="K6QV_oRI_L7NrehGVFSH-94" value="F&lt;sub&gt;1&lt;/sub&gt; + F&lt;sub&gt;2&lt;/sub&gt; + ... + F&lt;sub&gt;k&lt;/sub&gt;" style="edgeLabel;html=1;align=center;verticalAlign=middle;resizable=0;points=[];fontSize=20;labelBackgroundColor=none;" parent="K6QV_oRI_L7NrehGVFSH-92" vertex="1" connectable="0">
          <mxGeometry x="-0.2977" y="-18" relative="1" as="geometry">
            <mxPoint x="-89" y="-4" as="offset" />
          </mxGeometry>
        </mxCell>
        <mxCell id="K6QV_oRI_L7NrehGVFSH-95" value="" style="shape=flexArrow;endArrow=classic;html=1;shadow=0;fontSize=20;sourcePerimeterSpacing=5;targetPerimeterSpacing=5;strokeColor=#000000;" parent="1" edge="1">
          <mxGeometry width="50" height="50" relative="1" as="geometry">
            <mxPoint x="-376.66" y="720" as="sourcePoint" />
            <mxPoint x="-376.5400000000002" y="780" as="targetPoint" />
          </mxGeometry>
        </mxCell>
        <mxCell id="K6QV_oRI_L7NrehGVFSH-96" value="Dense, Softmax" style="edgeLabel;html=1;align=center;verticalAlign=middle;resizable=0;points=[];fontSize=20;labelBackgroundColor=none;labelBorderColor=none;" parent="K6QV_oRI_L7NrehGVFSH-95" vertex="1" connectable="0">
          <mxGeometry x="0.0182" y="2" relative="1" as="geometry">
            <mxPoint x="-5" y="-11" as="offset" />
          </mxGeometry>
        </mxCell>
        <mxCell id="K6QV_oRI_L7NrehGVFSH-97" value="y&#39;" style="text;html=1;strokeColor=none;fillColor=none;align=center;verticalAlign=middle;whiteSpace=wrap;rounded=0;fontSize=20;" parent="1" vertex="1">
          <mxGeometry x="-401.83" y="793" width="40" height="20" as="geometry" />
        </mxCell>
        <mxCell id="GJ2BzSzPHDWUAvZUWdHp-2" value="" style="endArrow=none;html=1;shadow=0;fontSize=20;sourcePerimeterSpacing=5;targetPerimeterSpacing=5;strokeColor=#000000;exitX=0;exitY=1;exitDx=0;exitDy=0;curved=1;entryX=0;entryY=0;entryDx=20;entryDy=94.38;entryPerimeter=0;" parent="1" target="K6QV_oRI_L7NrehGVFSH-14" edge="1">
          <mxGeometry width="50" height="50" relative="1" as="geometry">
            <mxPoint x="-896" y="141.0000000000001" as="sourcePoint" />
            <mxPoint x="-896" y="21" as="targetPoint" />
            <Array as="points">
              <mxPoint x="-867" y="91" />
            </Array>
          </mxGeometry>
        </mxCell>
        <mxCell id="GJ2BzSzPHDWUAvZUWdHp-3" value="n&lt;sub&gt;c&lt;/sub&gt;" style="edgeLabel;html=1;align=center;verticalAlign=middle;resizable=0;points=[];fontSize=20;" parent="GJ2BzSzPHDWUAvZUWdHp-2" vertex="1" connectable="0">
          <mxGeometry x="-0.2917" y="-19" relative="1" as="geometry">
            <mxPoint x="-20" y="-26" as="offset" />
          </mxGeometry>
        </mxCell>
        <mxCell id="GJ2BzSzPHDWUAvZUWdHp-6" value="" style="endArrow=none;html=1;shadow=0;fontSize=20;sourcePerimeterSpacing=5;targetPerimeterSpacing=5;strokeColor=#000000;curved=1;entryX=0;entryY=0;entryDx=110;entryDy=20;entryPerimeter=0;" parent="1" edge="1">
          <mxGeometry width="50" height="50" relative="1" as="geometry">
            <mxPoint x="-897" y="51" as="sourcePoint" />
            <mxPoint x="-821.99" y="51" as="targetPoint" />
            <Array as="points">
              <mxPoint x="-857" y="81" />
            </Array>
          </mxGeometry>
        </mxCell>
        <mxCell id="GJ2BzSzPHDWUAvZUWdHp-7" value="n&#39;&lt;span style=&quot;font-size: 16.6667px&quot;&gt;&lt;sub&gt;t&lt;/sub&gt;&lt;/span&gt;" style="edgeLabel;html=1;align=center;verticalAlign=middle;resizable=0;points=[];fontSize=20;" parent="GJ2BzSzPHDWUAvZUWdHp-6" vertex="1" connectable="0">
          <mxGeometry x="-0.1462" y="-16" relative="1" as="geometry">
            <mxPoint x="16" y="-19" as="offset" />
          </mxGeometry>
        </mxCell>
        <mxCell id="GJ2BzSzPHDWUAvZUWdHp-12" style="edgeStyle=orthogonalEdgeStyle;rounded=0;orthogonalLoop=1;jettySize=auto;html=1;exitX=0.5;exitY=1;exitDx=0;exitDy=0;" parent="1" source="K6QV_oRI_L7NrehGVFSH-25" target="K6QV_oRI_L7NrehGVFSH-25" edge="1">
          <mxGeometry relative="1" as="geometry" />
        </mxCell>
        <mxCell id="GJ2BzSzPHDWUAvZUWdHp-13" value="" style="shape=cube;whiteSpace=wrap;html=1;boundedLbl=1;backgroundOutline=1;darkOpacity=0.05;darkOpacity2=0.1;fontSize=20;rotation=90;" parent="1" vertex="1">
          <mxGeometry x="-667" y="38.81" width="110" height="94.38" as="geometry" />
        </mxCell>
        <mxCell id="GJ2BzSzPHDWUAvZUWdHp-14" value="" style="endArrow=none;html=1;shadow=0;fontSize=20;sourcePerimeterSpacing=5;targetPerimeterSpacing=5;strokeColor=#000000;curved=1;" parent="1" edge="1">
          <mxGeometry width="50" height="50" relative="1" as="geometry">
            <mxPoint x="-639.8199999999999" y="31" as="sourcePoint" />
            <mxPoint x="-659.8199999999999" y="51" as="targetPoint" />
            <Array as="points">
              <mxPoint x="-659.8199999999999" y="31" />
            </Array>
          </mxGeometry>
        </mxCell>
        <mxCell id="GJ2BzSzPHDWUAvZUWdHp-15" value="" style="endArrow=none;html=1;shadow=0;fontSize=20;sourcePerimeterSpacing=5;targetPerimeterSpacing=5;strokeColor=#000000;exitX=0;exitY=1;exitDx=0;exitDy=0;curved=1;entryX=0;entryY=0;entryDx=20;entryDy=94.38;entryPerimeter=0;" parent="1" target="GJ2BzSzPHDWUAvZUWdHp-13" edge="1">
          <mxGeometry width="50" height="50" relative="1" as="geometry">
            <mxPoint x="-658.8199999999999" y="141.00000000000023" as="sourcePoint" />
            <mxPoint x="-658.8199999999999" y="21" as="targetPoint" />
            <Array as="points">
              <mxPoint x="-629.8199999999999" y="91" />
            </Array>
          </mxGeometry>
        </mxCell>
        <mxCell id="GJ2BzSzPHDWUAvZUWdHp-16" value="n&lt;sub&gt;c&lt;/sub&gt;" style="edgeLabel;html=1;align=center;verticalAlign=middle;resizable=0;points=[];fontSize=20;" parent="GJ2BzSzPHDWUAvZUWdHp-15" vertex="1" connectable="0">
          <mxGeometry x="-0.2917" y="-19" relative="1" as="geometry">
            <mxPoint x="-20" y="-26" as="offset" />
          </mxGeometry>
        </mxCell>
        <mxCell id="GJ2BzSzPHDWUAvZUWdHp-17" value="" style="endArrow=none;html=1;shadow=0;fontSize=20;sourcePerimeterSpacing=5;targetPerimeterSpacing=5;strokeColor=#000000;curved=1;entryX=0;entryY=0;entryDx=110;entryDy=20;entryPerimeter=0;" parent="1" edge="1">
          <mxGeometry width="50" height="50" relative="1" as="geometry">
            <mxPoint x="-659.8199999999999" y="51" as="sourcePoint" />
            <mxPoint x="-584.81" y="51" as="targetPoint" />
            <Array as="points">
              <mxPoint x="-619.8199999999999" y="81" />
            </Array>
          </mxGeometry>
        </mxCell>
        <mxCell id="GJ2BzSzPHDWUAvZUWdHp-18" value="n&#39;&lt;span style=&quot;font-size: 16.6667px&quot;&gt;&lt;sub&gt;t&lt;/sub&gt;&lt;/span&gt;" style="edgeLabel;html=1;align=center;verticalAlign=middle;resizable=0;points=[];fontSize=20;" parent="GJ2BzSzPHDWUAvZUWdHp-17" vertex="1" connectable="0">
          <mxGeometry x="-0.1462" y="-16" relative="1" as="geometry">
            <mxPoint x="16" y="-19" as="offset" />
          </mxGeometry>
        </mxCell>
        <mxCell id="GJ2BzSzPHDWUAvZUWdHp-19" value="&lt;font style=&quot;font-size: 16px&quot;&gt;F&lt;sub&gt;1&lt;/sub&gt;&lt;/font&gt;" style="text;html=1;strokeColor=none;fillColor=none;align=center;verticalAlign=middle;whiteSpace=wrap;rounded=0;fontSize=20;" parent="1" vertex="1">
          <mxGeometry x="-691" y="21.629999999999995" width="40" height="20" as="geometry" />
        </mxCell>
        <mxCell id="GJ2BzSzPHDWUAvZUWdHp-20" value="" style="shape=flexArrow;endArrow=classic;html=1;shadow=0;fontSize=20;sourcePerimeterSpacing=5;targetPerimeterSpacing=5;strokeColor=#b85450;gradientColor=#ea6b66;fillColor=#f8cecc;" parent="1" edge="1">
          <mxGeometry width="50" height="50" relative="1" as="geometry">
            <mxPoint x="-557" y="95.58000000000004" as="sourcePoint" />
            <mxPoint x="-427.00000000000006" y="96.08000000000004" as="targetPoint" />
          </mxGeometry>
        </mxCell>
        <mxCell id="GJ2BzSzPHDWUAvZUWdHp-23" value="" style="shape=cube;whiteSpace=wrap;html=1;boundedLbl=1;backgroundOutline=1;darkOpacity=0.05;darkOpacity2=0.1;fontSize=20;rotation=90;" parent="1" vertex="1">
          <mxGeometry x="-425.99999999999994" y="38.81" width="110" height="94.38" as="geometry" />
        </mxCell>
        <mxCell id="GJ2BzSzPHDWUAvZUWdHp-24" value="" style="endArrow=none;html=1;shadow=0;fontSize=20;sourcePerimeterSpacing=5;targetPerimeterSpacing=5;strokeColor=#000000;curved=1;" parent="1" edge="1">
          <mxGeometry width="50" height="50" relative="1" as="geometry">
            <mxPoint x="-398.82" y="31" as="sourcePoint" />
            <mxPoint x="-418.82" y="51" as="targetPoint" />
            <Array as="points">
              <mxPoint x="-418.82" y="31" />
            </Array>
          </mxGeometry>
        </mxCell>
        <mxCell id="GJ2BzSzPHDWUAvZUWdHp-25" value="&lt;font style=&quot;font-size: 16px&quot;&gt;F&lt;sub&gt;2&lt;/sub&gt;&lt;/font&gt;" style="text;html=1;strokeColor=none;fillColor=none;align=center;verticalAlign=middle;whiteSpace=wrap;rounded=0;fontSize=20;" parent="1" vertex="1">
          <mxGeometry x="-448.82" y="21.630000000000003" width="40" height="20" as="geometry" />
        </mxCell>
        <mxCell id="GJ2BzSzPHDWUAvZUWdHp-26" value="" style="endArrow=none;html=1;shadow=0;fontSize=20;sourcePerimeterSpacing=5;targetPerimeterSpacing=5;strokeColor=#000000;exitX=0;exitY=1;exitDx=0;exitDy=0;curved=1;entryX=0;entryY=0;entryDx=20;entryDy=94.38;entryPerimeter=0;" parent="1" target="GJ2BzSzPHDWUAvZUWdHp-23" edge="1">
          <mxGeometry width="50" height="50" relative="1" as="geometry">
            <mxPoint x="-417.82" y="141.00000000000023" as="sourcePoint" />
            <mxPoint x="-417.82" y="21.000000000000007" as="targetPoint" />
            <Array as="points">
              <mxPoint x="-388.82" y="91" />
            </Array>
          </mxGeometry>
        </mxCell>
        <mxCell id="GJ2BzSzPHDWUAvZUWdHp-27" value="n&lt;sub&gt;c&lt;/sub&gt;" style="edgeLabel;html=1;align=center;verticalAlign=middle;resizable=0;points=[];fontSize=20;" parent="GJ2BzSzPHDWUAvZUWdHp-26" vertex="1" connectable="0">
          <mxGeometry x="-0.2917" y="-19" relative="1" as="geometry">
            <mxPoint x="-20" y="-26" as="offset" />
          </mxGeometry>
        </mxCell>
        <mxCell id="GJ2BzSzPHDWUAvZUWdHp-28" value="" style="endArrow=none;html=1;shadow=0;fontSize=20;sourcePerimeterSpacing=5;targetPerimeterSpacing=5;strokeColor=#000000;curved=1;entryX=0;entryY=0;entryDx=110;entryDy=20;entryPerimeter=0;" parent="1" edge="1">
          <mxGeometry width="50" height="50" relative="1" as="geometry">
            <mxPoint x="-418.82" y="51" as="sourcePoint" />
            <mxPoint x="-343.81" y="51" as="targetPoint" />
            <Array as="points">
              <mxPoint x="-378.82" y="81" />
            </Array>
          </mxGeometry>
        </mxCell>
        <mxCell id="GJ2BzSzPHDWUAvZUWdHp-29" value="n&#39;&lt;span style=&quot;font-size: 16.6667px&quot;&gt;&lt;sub&gt;t&lt;/sub&gt;&lt;/span&gt;" style="edgeLabel;html=1;align=center;verticalAlign=middle;resizable=0;points=[];fontSize=20;" parent="GJ2BzSzPHDWUAvZUWdHp-28" vertex="1" connectable="0">
          <mxGeometry x="-0.1462" y="-16" relative="1" as="geometry">
            <mxPoint x="16" y="-19" as="offset" />
          </mxGeometry>
        </mxCell>
        <mxCell id="GJ2BzSzPHDWUAvZUWdHp-30" value="" style="shape=cube;whiteSpace=wrap;html=1;boundedLbl=1;backgroundOutline=1;darkOpacity=0.05;darkOpacity2=0.1;fontSize=20;rotation=90;" parent="1" vertex="1">
          <mxGeometry x="-145.99999999999994" y="43.49000000000001" width="110" height="94.38" as="geometry" />
        </mxCell>
        <mxCell id="GJ2BzSzPHDWUAvZUWdHp-31" value="" style="endArrow=none;html=1;shadow=0;fontSize=20;sourcePerimeterSpacing=5;targetPerimeterSpacing=5;strokeColor=#000000;curved=1;" parent="1" edge="1">
          <mxGeometry width="50" height="50" relative="1" as="geometry">
            <mxPoint x="-118.81999999999994" y="35.68000000000001" as="sourcePoint" />
            <mxPoint x="-138.81999999999994" y="55.68000000000001" as="targetPoint" />
            <Array as="points">
              <mxPoint x="-138.82" y="35.68000000000001" />
            </Array>
          </mxGeometry>
        </mxCell>
        <mxCell id="GJ2BzSzPHDWUAvZUWdHp-32" value="&lt;font style=&quot;font-size: 16px&quot;&gt;F&lt;sub&gt;k&lt;/sub&gt;&lt;/font&gt;" style="text;html=1;strokeColor=none;fillColor=none;align=center;verticalAlign=middle;whiteSpace=wrap;rounded=0;fontSize=20;" parent="1" vertex="1">
          <mxGeometry x="-168.82" y="26.310000000000002" width="40" height="20" as="geometry" />
        </mxCell>
        <mxCell id="GJ2BzSzPHDWUAvZUWdHp-33" value="" style="endArrow=none;html=1;shadow=0;fontSize=20;sourcePerimeterSpacing=5;targetPerimeterSpacing=5;strokeColor=#000000;exitX=0;exitY=1;exitDx=0;exitDy=0;curved=1;entryX=0;entryY=0;entryDx=20;entryDy=94.38;entryPerimeter=0;" parent="1" target="GJ2BzSzPHDWUAvZUWdHp-30" edge="1">
          <mxGeometry width="50" height="50" relative="1" as="geometry">
            <mxPoint x="-137.81999999999994" y="145.68000000000035" as="sourcePoint" />
            <mxPoint x="-137.82" y="25.680000000000007" as="targetPoint" />
            <Array as="points">
              <mxPoint x="-108.82" y="95.68" />
            </Array>
          </mxGeometry>
        </mxCell>
        <mxCell id="GJ2BzSzPHDWUAvZUWdHp-34" value="n&lt;sub&gt;c&lt;/sub&gt;" style="edgeLabel;html=1;align=center;verticalAlign=middle;resizable=0;points=[];fontSize=20;" parent="GJ2BzSzPHDWUAvZUWdHp-33" vertex="1" connectable="0">
          <mxGeometry x="-0.2917" y="-19" relative="1" as="geometry">
            <mxPoint x="-20" y="-26" as="offset" />
          </mxGeometry>
        </mxCell>
        <mxCell id="GJ2BzSzPHDWUAvZUWdHp-35" value="" style="endArrow=none;html=1;shadow=0;fontSize=20;sourcePerimeterSpacing=5;targetPerimeterSpacing=5;strokeColor=#000000;curved=1;entryX=0;entryY=0;entryDx=110;entryDy=20;entryPerimeter=0;" parent="1" edge="1">
          <mxGeometry width="50" height="50" relative="1" as="geometry">
            <mxPoint x="-138.81999999999994" y="55.68000000000001" as="sourcePoint" />
            <mxPoint x="-63.809999999999945" y="55.68000000000001" as="targetPoint" />
            <Array as="points">
              <mxPoint x="-98.82" y="85.68" />
            </Array>
          </mxGeometry>
        </mxCell>
        <mxCell id="GJ2BzSzPHDWUAvZUWdHp-36" value="n&#39;&lt;span style=&quot;font-size: 16.6667px&quot;&gt;&lt;sub&gt;t&lt;/sub&gt;&lt;/span&gt;" style="edgeLabel;html=1;align=center;verticalAlign=middle;resizable=0;points=[];fontSize=20;" parent="GJ2BzSzPHDWUAvZUWdHp-35" vertex="1" connectable="0">
          <mxGeometry x="-0.1462" y="-16" relative="1" as="geometry">
            <mxPoint x="16" y="-19" as="offset" />
          </mxGeometry>
        </mxCell>
        <mxCell id="GJ2BzSzPHDWUAvZUWdHp-37" value="" style="shape=cube;whiteSpace=wrap;html=1;boundedLbl=1;backgroundOutline=1;darkOpacity=0.05;darkOpacity2=0.1;fontSize=20;rotation=90;" parent="1" vertex="1">
          <mxGeometry x="-110" y="242" width="35" height="98.75" as="geometry" />
        </mxCell>
        <mxCell id="GJ2BzSzPHDWUAvZUWdHp-38" value="" style="shape=cube;whiteSpace=wrap;html=1;boundedLbl=1;backgroundOutline=1;darkOpacity=0.05;darkOpacity2=0.1;fontSize=20;rotation=90;" parent="1" vertex="1">
          <mxGeometry x="-396.83" y="372" width="35" height="98.75" as="geometry" />
        </mxCell>
        <mxCell id="HKwi6_NfgqTgC-5GJInl-2" value="" style="shape=cube;whiteSpace=wrap;html=1;boundedLbl=1;backgroundOutline=1;darkOpacity=0.05;darkOpacity2=0.1;fontSize=20;rotation=90;size=2;" vertex="1" parent="1">
          <mxGeometry x="-1132" y="55.19" width="92" height="80" as="geometry" />
        </mxCell>
        <mxCell id="K6QV_oRI_L7NrehGVFSH-5" value="" style="endArrow=none;html=1;shadow=0;fontSize=20;sourcePerimeterSpacing=5;targetPerimeterSpacing=5;strokeColor=#000000;curved=1;" parent="1" edge="1">
          <mxGeometry width="50" height="50" relative="1" as="geometry">
            <mxPoint x="-1126" y="51" as="sourcePoint" />
            <mxPoint x="-1047" y="51" as="targetPoint" />
            <Array as="points">
              <mxPoint x="-1086" y="21" />
            </Array>
          </mxGeometry>
        </mxCell>
        <mxCell id="K6QV_oRI_L7NrehGVFSH-6" value="n&lt;span style=&quot;font-size: 16.6667px&quot;&gt;&lt;sub&gt;t&lt;/sub&gt;&lt;/span&gt;" style="edgeLabel;html=1;align=center;verticalAlign=middle;resizable=0;points=[];fontSize=20;" parent="K6QV_oRI_L7NrehGVFSH-5" vertex="1" connectable="0">
          <mxGeometry x="-0.1462" y="-16" relative="1" as="geometry">
            <mxPoint x="-4" y="-7" as="offset" />
          </mxGeometry>
        </mxCell>
        <mxCell id="HKwi6_NfgqTgC-5GJInl-4" value="2d Convolution" style="shape=flexArrow;endArrow=classic;html=1;shadow=0;fontSize=20;sourcePerimeterSpacing=5;targetPerimeterSpacing=5;strokeColor=#10739e;fillColor=#b1ddf0;" edge="1" parent="1">
          <mxGeometry x="1" y="110" width="50" height="50" relative="1" as="geometry">
            <mxPoint x="-1120" y="495.13" as="sourcePoint" />
            <mxPoint x="-1050" y="495.84000000000003" as="targetPoint" />
            <mxPoint x="108" y="110" as="offset" />
          </mxGeometry>
        </mxCell>
        <mxCell id="HKwi6_NfgqTgC-5GJInl-7" value="Seperable Convolution" style="shape=flexArrow;endArrow=classic;html=1;shadow=0;fontSize=20;sourcePerimeterSpacing=5;targetPerimeterSpacing=5;strokeColor=#b85450;gradientColor=#ea6b66;fillColor=#f8cecc;" edge="1" parent="1">
          <mxGeometry x="1" y="140" width="50" height="50" relative="1" as="geometry">
            <mxPoint x="-1121" y="448.82000000000005" as="sourcePoint" />
            <mxPoint x="-1051" y="449.82000000000005" as="targetPoint" />
            <mxPoint x="137" y="140" as="offset" />
          </mxGeometry>
        </mxCell>
        <mxCell id="HKwi6_NfgqTgC-5GJInl-9" value="" style="rounded=1;whiteSpace=wrap;html=1;fillColor=#d5e8d4;strokeColor=#82b366;shadow=1;opacity=60;gradientColor=#ffffff;" vertex="1" parent="1">
          <mxGeometry x="-1120" y="543.74" width="80" height="30" as="geometry" />
        </mxCell>
        <mxCell id="HKwi6_NfgqTgC-5GJInl-10" value="" style="rounded=1;whiteSpace=wrap;html=1;labelBackgroundColor=#D5E8D4;fillColor=#fff2cc;strokeColor=#d6b656;shadow=1;opacity=80;perimeterSpacing=1;gradientColor=#ffffff;" vertex="1" parent="1">
          <mxGeometry x="-1120" y="600" width="80" height="30" as="geometry" />
        </mxCell>
        <mxCell id="HKwi6_NfgqTgC-5GJInl-11" value="" style="rounded=1;whiteSpace=wrap;html=1;labelBackgroundColor=#FFF2CC;glass=0;arcSize=15;imageHeight=22;imageWidth=24;fillColor=#f8cecc;strokeColor=#b85450;shadow=1;opacity=60;sketch=0;gradientColor=#ffffff;gradientDirection=south;" vertex="1" parent="1">
          <mxGeometry x="-1120" y="653.43" width="80" height="30" as="geometry" />
        </mxCell>
        <mxCell id="HKwi6_NfgqTgC-5GJInl-12" value="&lt;font style=&quot;font-size: 18px&quot;&gt;Spectral-Temporal&amp;nbsp; Feature&lt;br&gt;Representation Block&lt;/font&gt;" style="text;html=1;align=left;verticalAlign=middle;resizable=0;points=[];autosize=1;strokeColor=none;fillColor=none;" vertex="1" parent="1">
          <mxGeometry x="-1010" y="538.74" width="230" height="40" as="geometry" />
        </mxCell>
        <mxCell id="HKwi6_NfgqTgC-5GJInl-13" value="&lt;font style=&quot;font-size: 18px&quot;&gt;Spatial&amp;nbsp; Feature&lt;br&gt;Representation Block&lt;/font&gt;" style="text;html=1;align=left;verticalAlign=middle;resizable=0;points=[];autosize=1;strokeColor=none;fillColor=none;" vertex="1" parent="1">
          <mxGeometry x="-1010" y="595" width="190" height="40" as="geometry" />
        </mxCell>
        <mxCell id="HKwi6_NfgqTgC-5GJInl-14" value="&lt;span style=&quot;font-size: 18px&quot;&gt;Classification Block&lt;/span&gt;" style="text;html=1;align=left;verticalAlign=middle;resizable=0;points=[];autosize=1;strokeColor=none;fillColor=none;" vertex="1" parent="1">
          <mxGeometry x="-1010" y="658.4300000000001" width="170" height="20" as="geometry" />
        </mxCell>
      </root>
    </mxGraphModel>
  </diagram>
  <diagram id="qJvAFQIa0MB9XBsWAeVf" name="SepConv">
    <mxGraphModel dx="2591" dy="737" grid="1" gridSize="10" guides="1" tooltips="1" connect="1" arrows="1" fold="1" page="1" pageScale="1" pageWidth="1169" pageHeight="827" math="0" shadow="0">
      <root>
        <mxCell id="tZhcslBJJZrhV-x3AoGD-0" />
        <mxCell id="tZhcslBJJZrhV-x3AoGD-1" parent="tZhcslBJJZrhV-x3AoGD-0" />
        <mxCell id="hEOffMa77joeRmeo2E98-0" value="" style="shape=cube;whiteSpace=wrap;html=1;boundedLbl=1;backgroundOutline=1;darkOpacity=0.05;darkOpacity2=0.1;fontSize=20;rotation=90;" vertex="1" parent="tZhcslBJJZrhV-x3AoGD-1">
          <mxGeometry x="-1090" y="100" width="110" height="94.38" as="geometry" />
        </mxCell>
      </root>
    </mxGraphModel>
  </diagram>
</mxfile>
